<svg width="500" height="500" viewBox="0 0 500 500" fill="none" xmlns="http://www.w3.org/2000/svg">
<path d="M390.29 47.49C390.29 47.49 340.42 6.76 275.56 24.82C210.7 42.88 183.56 98.75 146.35 137.16C126.87 157.28 98.09 164.7 74.95 180.16C1.00001 229.69 11.91 341 69 383C118.4 419.35 180.13 423.15 260.45 396.34C340.77 369.53 398.26 353.42 448.08 276.63C497.9 199.84 451.72 102.76 390.29 47.49Z" fill="#1576D6"/>
<path opacity="0.7" d="M390.29 47.49C390.29 47.49 340.42 6.76 275.56 24.82C210.7 42.88 183.56 98.75 146.35 137.16C126.87 157.28 98.09 164.7 74.95 180.16C1.00001 229.69 11.91 341 69 383C118.4 419.35 180.13 423.15 260.45 396.34C340.77 369.53 398.26 353.42 448.08 276.63C497.9 199.84 451.72 102.76 390.29 47.49Z" fill="white"/>
<mask id="mask0_2010_3650" style="mask-type:luminance" maskUnits="userSpaceOnUse" x="25" y="139" width="103" height="167">
<path d="M55 304.28V268.48C55 268.48 59.45 254.09 66.28 252.6L73.1 251.12L127.34 251.35V139.86H25.87V305.53L55 304.28Z" fill="white"/>
</mask>
<g mask="url(#mask0_2010_3650)">
<path d="M94 162.55C94 162.55 94 158.11 87.78 151.9C81.56 145.69 77.58 142.13 77.58 142.13C77.58 142.13 74.47 152.34 80.24 158.56C84.484 162.937 89.0868 166.951 94 170.56V162.55Z" fill="#1576D6"/>
<path d="M84.93 190.27C84.93 190.27 84.93 185.83 78.72 179.62C72.51 173.41 68.51 169.85 68.51 169.85C68.51 169.85 65.4 180.06 71.17 186.27C75.4126 190.648 80.0155 194.662 84.93 198.27V190.27Z" fill="#1576D6"/>
<path d="M93.56 170.11C93.56 170.11 94.03 165.7 100.86 160.17C107.69 154.64 112 151.54 112 151.54C112 151.54 114 162.02 107.62 167.59C102.923 171.492 97.9051 174.991 92.62 178.05L93.56 170.11Z" fill="#1576D6"/>
<path d="M82.66 202.84C82.66 202.84 83.59 198.5 90.97 193.73C98.35 188.96 102.97 186.32 102.97 186.32C102.97 186.32 103.87 196.95 96.97 201.82C91.8946 205.208 86.5423 208.162 80.97 210.65L82.66 202.84Z" fill="#1576D6"/>
<path d="M84.71 238.53C84.71 238.53 84.71 234.09 90.93 227.88C97.15 221.67 101.13 218.12 101.13 218.12C101.13 218.12 104.24 228.32 98.47 234.54C94.226 238.917 89.6233 242.931 84.71 246.54V238.53Z" fill="#1576D6"/>
<path d="M84.61 247.24C84.61 247.24 85.24 242.85 79.97 235.82C74.7 228.79 71.26 224.7 71.26 224.7C71.26 224.7 66.73 234.36 71.56 241.33C75.1395 246.259 79.1232 250.882 83.47 255.15L84.61 247.24Z" fill="#1576D6"/>
<path d="M78.48 273.06C78.48 273.06 78.48 268.62 84.69 262.41C90.9 256.2 94.9 252.64 94.9 252.64C94.9 252.64 98.01 262.85 92.24 269.06C87.9973 273.438 83.3945 277.452 78.48 281.06V273.06Z" fill="#1576D6"/>
<path d="M82.63 296.46C82.63 296.46 81.51 292.17 85.94 284.59C90.37 277.01 93.35 272.59 93.35 272.59C93.35 272.59 98.94 281.67 94.93 289.15C91.9304 294.452 88.4917 299.493 84.65 304.22L82.63 296.46Z" fill="#1576D6"/>
<path d="M94.51 161.41C94.1984 166.031 93.6309 170.632 92.81 175.19C90.35 187.88 84.21 196.07 81.81 207.53C79.41 218.99 86.4 233.76 84.51 248.48C82.62 263.2 76.89 271.39 78.51 281.21C80.13 291.03 89 318.2 89 318.2" stroke="#263238" stroke-linecap="round" stroke-linejoin="round"/>
<path d="M93.5 173.06L100.19 167.92" stroke="#263238" stroke-linecap="round" stroke-linejoin="round"/>
<path d="M93.81 167.14L91 162.16" stroke="#263238" stroke-linecap="round" stroke-linejoin="round"/>
<path d="M82.13 207C82.13 207 87.73 202.79 93.5 198.59" stroke="#263238" stroke-linecap="round" stroke-linejoin="round"/>
<path d="M84.93 198.26C84.93 198.26 80.26 189.1 75 183" stroke="#263238" stroke-linecap="round" stroke-linejoin="round"/>
<path d="M84.93 244.84C88.1355 238.955 92.1776 233.565 96.93 228.84" stroke="#263238" stroke-linecap="round" stroke-linejoin="round"/>
<path d="M83.84 251.07C82.1394 247.068 80.1091 243.215 77.77 239.55C74.5 234.72 74 234.1 74 234.1" stroke="#263238" stroke-linecap="round" stroke-linejoin="round"/>
<path d="M78.48 281.21C79.8856 277.688 81.5571 274.278 83.48 271.01C85.4189 267.977 87.6064 265.111 90.02 262.44" stroke="#263238" stroke-linecap="round" stroke-linejoin="round"/>
<path d="M84.65 304.19C84.3296 300.822 84.9094 297.43 86.33 294.36C88.67 289.85 91.33 283.93 92.41 281.59" stroke="#263238" stroke-linecap="round" stroke-linejoin="round"/>
<path d="M43.24 221.84C43.24 221.84 42.76 219.06 45.98 214.49C49.2 209.92 51.32 207.26 51.32 207.26C51.32 207.26 54.38 213.32 51.44 217.84C49.249 221.037 46.7973 224.047 44.11 226.84L43.24 221.84Z" fill="#1576D6"/>
<path d="M51.91 238.24C51.91 238.24 51.43 235.46 54.65 230.89C57.87 226.32 60 223.66 60 223.66C60 223.66 63 229.72 60.11 234.24C57.9255 237.442 55.4733 240.453 52.78 243.24L51.91 238.24Z" fill="#1576D6"/>
<path d="M44.31 226.54C44.31 226.54 43.54 223.82 38.65 221.1C33.76 218.38 30.7 216.9 30.7 216.9C30.7 216.9 30.58 223.69 35.19 226.49C38.5497 228.426 42.0653 230.079 45.7 231.43L44.31 226.54Z" fill="#1576D6"/>
<path d="M54.69 245.88C54.69 245.88 53.69 243.26 48.49 241.07C43.29 238.88 40.15 237.73 40.15 237.73C40.15 237.73 40.74 244.49 45.62 246.79C49.1734 248.366 52.853 249.641 56.62 250.6L54.69 245.88Z" fill="#1576D6"/>
<path d="M57.28 268.48C57.28 268.48 56.8 265.7 52.23 262.48C47.66 259.26 44.77 257.48 44.77 257.48C44.77 257.48 43.93 264.22 48.22 267.48C51.3579 269.752 54.6794 271.759 58.15 273.48L57.28 268.48Z" fill="#1576D6"/>
<path d="M58.29 273.93C58.29 273.93 57.42 271.25 59.96 266.27C62.5 261.29 64.22 258.35 64.22 258.35C64.22 258.35 68.11 263.92 65.84 268.81C64.1265 272.307 62.1193 275.652 59.84 278.81L58.29 273.93Z" fill="#1576D6"/>
<path d="M66.09 296.38C66.09 296.38 66.42 293.58 70.79 290.1C75.16 286.62 78 284.67 78 284.67C78 284.67 79.22 291.35 75.12 294.86C72.12 297.315 68.9187 299.512 65.55 301.43L66.09 296.38Z" fill="#1576D6"/>
<path d="M64.94 289.46C64.94 289.46 64.46 286.68 59.94 283.46C55.42 280.24 52.48 278.46 52.48 278.46C52.48 278.46 51.64 285.2 55.93 288.46C59.0663 290.734 62.388 292.741 65.86 294.46L64.94 289.46Z" fill="#1576D6"/>
<path d="M64.88 304.59C64.88 304.59 65.12 301.77 61.51 297.5C57.9 293.23 55.56 290.76 55.56 290.76C55.56 290.76 53.04 297.06 56.37 301.31C58.8249 304.311 61.5278 307.101 64.45 309.65L64.88 304.59Z" fill="#1576D6"/>
<path d="M42.77 221.19C43.4667 224.052 44.3214 226.873 45.33 229.64C48.25 237.34 52.99 241.8 55.77 248.72C58.55 255.64 55.77 265.72 58.52 274.72C61.27 283.72 65.78 288.25 65.82 294.59C65.86 300.93 63.54 318.08 63.54 318.08" stroke="#263238" stroke-linecap="round" stroke-linejoin="round"/>
<path d="M44.67 228.38L39.91 225.89" stroke="#263238" stroke-linecap="round" stroke-linejoin="round"/>
<path d="M43.83 224.7L45.05 221.27" stroke="#263238" stroke-linecap="round" stroke-linejoin="round"/>
<path d="M55.48 248.43C55.48 248.43 51.48 246.43 47.48 244.43" stroke="#263238" stroke-linecap="round" stroke-linejoin="round"/>
<path d="M52.77 243.25C53.9384 239.56 55.4797 235.998 57.37 232.62" stroke="#263238" stroke-linecap="round" stroke-linejoin="round"/>
<path d="M57.83 272.47C55.1849 269.116 52.0655 266.165 48.57 263.71" stroke="#263238" stroke-linecap="round" stroke-linejoin="round"/>
<path d="M59.19 276.25C59.822 273.557 60.6784 270.921 61.75 268.37C63.27 264.99 63.5 264.55 63.5 264.55" stroke="#263238" stroke-linecap="round" stroke-linejoin="round"/>
<path d="M65.61 299.38C67.1541 297.463 68.8641 295.687 70.72 294.07C71.9058 293.198 73.0194 292.231 74.05 291.18" stroke="#263238" stroke-linecap="round" stroke-linejoin="round"/>
<path d="M65.82 294.57C64.5486 292.514 63.121 290.558 61.55 288.72C60.0142 287.032 58.3419 285.473 56.55 284.06" stroke="#263238" stroke-linecap="round" stroke-linejoin="round"/>
<path d="M64.45 309.65C64.2885 307.497 63.5567 305.426 62.33 303.65C60.33 301.07 58.07 297.65 57.13 296.3" stroke="#263238" stroke-linecap="round" stroke-linejoin="round"/>
</g>
<path d="M451.99 100.78H381.24V193.43H451.99V100.78Z" stroke="#263238" stroke-linecap="round" stroke-linejoin="round"/>
<path d="M441.06 115.09H392.18V179.1H441.06V115.09Z" stroke="#263238" stroke-linecap="round" stroke-linejoin="round"/>
<path d="M345.59 67.09H290.28V139.52H345.59V67.09Z" stroke="#263238" stroke-linecap="round" stroke-linejoin="round"/>
<path d="M337.05 78.28H298.83V128.32H337.05V78.28Z" stroke="#263238" stroke-linecap="round" stroke-linejoin="round"/>
<path opacity="0.37" d="M68.24 426.3L65 436.33H421L418.72 426.82L68.24 426.3Z" fill="black"/>
<path d="M427.78 309.39C428 291.98 428.23 283.24 428.23 276.04C428.23 253.68 408.23 251.12 408.23 251.12H73.09C73.09 251.12 55.53 249.2 55.53 274.92C55.53 284.14 54.86 295.16 55.26 309.92" stroke="#263238" stroke-linecap="round" stroke-linejoin="round"/>
<path d="M95.43 339.95H388.19" stroke="#263238" stroke-linecap="round" stroke-linejoin="round"/>
<path d="M55.53 364.73V385.15C55.53 387.007 56.2675 388.787 57.5803 390.1C58.893 391.413 60.6735 392.15 62.53 392.15H179.13V362.55C179.13 352.1 179.9 339.84 179.9 339.84V263.14C179.9 263.14 178.71 256.43 180.9 251.96" stroke="#263238" stroke-linecap="round" stroke-linejoin="round"/>
<path d="M179.18 392.19H316.77L317.64 339.95V263.74C317.64 263.74 317.41 256.47 314.64 251.44" stroke="#263238" stroke-linecap="round" stroke-linejoin="round"/>
<path d="M316.77 392.19H421.6C423.282 392.191 424.898 391.537 426.106 390.366C427.313 389.196 428.018 387.601 428.07 385.92C428.32 377.21 428.75 368.28 428.75 365.23" stroke="#263238" stroke-linecap="round" stroke-linejoin="round"/>
<path d="M30.3 358.47L40.91 426.3H444.19L454.8 357.56" stroke="#263238" stroke-linecap="round" stroke-linejoin="round"/>
<path d="M49.32 426.82L54.57 441.54H62.46L68.24 426.3L49.32 426.82Z" fill="#263238" stroke="#263238" stroke-linecap="round" stroke-linejoin="round"/>
<path d="M418.72 426.82L423.97 441.54H431.86L437.64 426.3L418.72 426.82Z" fill="#263238" stroke="#263238" stroke-linecap="round" stroke-linejoin="round"/>
<path d="M67 361.44C63.541 363.263 59.7545 364.381 55.86 364.73C48.1879 365.23 40.5275 363.592 33.73 360C28.41 357.24 20.73 353.7 21.45 346.52C22.17 339.34 27.45 331.77 31.98 326.36C36.8153 320.465 42.8002 315.617 49.57 312.11C57.81 308 67.95 305.27 76.19 308.69C80.9618 310.803 85.3041 313.776 89 317.46C93.51 321.8 99.33 328.58 97.58 335.38C95.95 341.71 88.51 346.05 83.67 349.8C78.47 353.81 73 358.4 67 361.44Z" stroke="#263238" stroke-linecap="round" stroke-linejoin="round"/>
<path d="M416.39 361.44C419.85 363.262 423.636 364.38 427.53 364.73C435.209 365.231 442.876 363.593 449.68 360C454.99 357.24 462.68 353.7 461.95 346.52C461.22 339.34 455.95 331.77 451.42 326.36C446.585 320.465 440.6 315.617 433.83 312.11C425.59 308 415.45 305.27 407.21 308.69C402.439 310.816 398.1 313.802 394.41 317.5C389.9 321.84 384.08 328.62 385.83 335.42C387.46 341.75 394.9 346.09 399.75 349.84C404.93 353.81 410.38 358.4 416.39 361.44Z" stroke="#263238" stroke-linecap="round" stroke-linejoin="round"/>
<path d="M427.53 364.73H320.33C320.33 364.73 317.19 365.61 317.19 356.95C317.19 356.95 316.97 364.68 311.39 364.68H180.94C180.94 364.68 178.79 364.9 179 359.95C179.21 355 178.79 363.82 177.28 364.68C175.77 365.54 57.15 364.68 57.15 364.68" stroke="#263238" stroke-linecap="round" stroke-linejoin="round"/>
<path opacity="0.37" d="M244 485.67C268.118 485.67 287.67 477.611 287.67 467.67C287.67 457.729 268.118 449.67 244 449.67C219.882 449.67 200.33 457.729 200.33 467.67C200.33 477.611 219.882 485.67 244 485.67Z" fill="black"/>
<path d="M213.43 145C213.43 145 211.96 138.06 207.12 138.06C202.28 138.06 201.01 143.41 204.06 149.52C207.11 155.63 215.78 159.46 216.29 155.89C216.8 152.32 213.43 145 213.43 145Z" fill="white" stroke="#263238" stroke-linecap="round" stroke-linejoin="round"/>
<path d="M289.2 117.32C289.2 117.32 291.31 124.37 289.2 131.06C288.058 134.861 286.268 138.437 283.91 141.63V121.55L289.2 117.32Z" fill="#263238" stroke="#263238" stroke-linecap="round" stroke-linejoin="round"/>
<path d="M225 448.45C225 448.45 217.38 460.27 210.13 465.99C202.88 471.71 204.03 474.37 209.37 475.52C214.71 476.67 222.71 475.14 227.67 470.18C230.636 467.225 233.201 463.893 235.3 460.27L235.1 463.03C235.097 463.095 235.114 463.159 235.147 463.215C235.181 463.27 235.23 463.315 235.289 463.343C235.347 463.37 235.413 463.38 235.477 463.371C235.542 463.361 235.602 463.333 235.65 463.29L241.4 457.98C242.581 454.798 242.714 451.323 241.78 448.06C240.26 442.35 231.11 441.58 225 448.45Z" fill="white" stroke="#263238" stroke-linecap="round" stroke-linejoin="round"/>
<path d="M215.77 473.59C209.02 473.95 206.28 472.48 205.21 471.52C204.53 473.6 206.21 474.84 209.38 475.52C214.72 476.66 222.72 475.14 227.68 470.18C230.646 467.225 233.211 463.893 235.31 460.27L235.11 463.03C235.107 463.095 235.124 463.159 235.157 463.215C235.191 463.27 235.24 463.315 235.299 463.343C235.357 463.37 235.423 463.38 235.487 463.371C235.552 463.361 235.612 463.333 235.66 463.29L241.41 457.98C242.181 455.957 242.501 453.79 242.35 451.63C240.14 453.76 236.35 457.44 233.72 460.06C229.82 464 225.66 473.07 215.77 473.59Z" fill="white" stroke="#263238" stroke-linecap="round" stroke-linejoin="round"/>
<path d="M265.24 448.45C265.24 448.45 272.87 460.27 280.11 465.99C287.35 471.71 286.21 474.37 280.88 475.52C275.55 476.67 267.53 475.14 262.57 470.18C259.609 467.223 257.047 463.891 254.95 460.27L255.14 463.03C255.143 463.095 255.126 463.159 255.093 463.215C255.059 463.27 255.01 463.315 254.951 463.343C254.893 463.37 254.827 463.38 254.763 463.371C254.698 463.361 254.638 463.333 254.59 463.29L248.85 458C247.663 454.82 247.53 451.342 248.47 448.08C250 442.35 259.14 441.58 265.24 448.45Z" fill="white" stroke="#263238" stroke-linecap="round" stroke-linejoin="round"/>
<path d="M274.31 473.85C265.46 471.25 261.82 465.52 259.22 462.14C256.93 459.14 249.61 453.49 247.88 452.14C247.814 454.128 248.155 456.108 248.88 457.96L254.62 463.27C254.668 463.313 254.728 463.341 254.793 463.351C254.857 463.36 254.923 463.35 254.981 463.323C255.04 463.295 255.089 463.25 255.123 463.195C255.156 463.139 255.173 463.075 255.17 463.01L254.98 460.25C257.077 463.871 259.639 467.203 262.6 470.16C267.6 475.16 275.6 476.64 280.91 475.5C284.29 474.77 285.97 473.43 284.91 471.1C283.602 472.54 281.903 473.566 280.02 474.055C278.137 474.543 276.153 474.472 274.31 473.85Z" fill="white" stroke="#263238" stroke-linecap="round" stroke-linejoin="round"/>
<path d="M245 295.85L202.87 291.74L203.63 294.02C203.63 294.02 208.63 337.87 212.78 358.84C216.93 379.81 220.03 388.58 220.03 388.58C219.85 393.082 220.363 397.584 221.55 401.93C223.46 408.03 223.84 422.93 225.36 430.53C226.88 438.13 226.13 442.35 226.13 442.35C226.13 442.35 221.93 446.92 222.31 448.06C222.555 448.929 222.683 449.827 222.69 450.73C222.69 450.73 224.98 456.83 231.08 456.83C237.18 456.83 242.52 451.88 242.52 451.88L244.04 325.42L245.04 325.35L245.99 325.42L247.52 451.88C247.52 451.88 252.86 456.83 258.96 456.83C265.06 456.83 267.34 450.73 267.34 450.73C267.347 449.826 267.479 448.928 267.73 448.06C268.11 446.92 263.91 442.35 263.91 442.35C263.91 442.35 263.15 438.15 264.68 430.53C266.21 422.91 266.58 408.03 268.49 401.93C269.674 397.584 270.183 393.081 270 388.58C270 388.58 273.05 379.81 277.25 358.84C281.45 337.87 286.4 294 286.4 294L287.16 291.72L245 295.85Z" fill="#263238"/>
<mask id="mask1_2010_3650" style="mask-type:luminance" maskUnits="userSpaceOnUse" x="202" y="291" width="86" height="166">
<path d="M245 295.85L202.87 291.74L203.63 294.02C203.63 294.02 208.63 337.87 212.78 358.84C216.93 379.81 220.03 388.58 220.03 388.58C219.85 393.082 220.363 397.584 221.55 401.93C223.46 408.03 223.84 422.93 225.36 430.53C226.88 438.13 226.13 442.35 226.13 442.35C226.13 442.35 221.93 446.92 222.31 448.06C222.555 448.929 222.683 449.827 222.69 450.73C222.69 450.73 224.98 456.83 231.08 456.83C237.18 456.83 242.52 451.88 242.52 451.88L244.04 325.42L245.04 325.35L245.99 325.42L247.52 451.88C247.52 451.88 252.86 456.83 258.96 456.83C265.06 456.83 267.34 450.73 267.34 450.73C267.347 449.826 267.479 448.928 267.73 448.06C268.11 446.92 263.91 442.35 263.91 442.35C263.91 442.35 263.15 438.15 264.68 430.53C266.21 422.91 266.58 408.03 268.49 401.93C269.674 397.584 270.183 393.081 270 388.58C270 388.58 273.05 379.81 277.25 358.84C281.45 337.87 286.4 294 286.4 294L287.16 291.72L245 295.85Z" fill="white"/>
</mask>
<g mask="url(#mask1_2010_3650)">
<path d="M263.16 407C258.02 415.82 251.49 426.25 245.86 432.88" stroke="#7D7D7D" stroke-linecap="round" stroke-linejoin="round"/>
<path d="M272.17 390.78C272.17 390.78 270.09 394.78 266.88 400.5" stroke="#7D7D7D" stroke-linecap="round" stroke-linejoin="round"/>
<path d="M276.63 399.28C276.63 399.28 266.91 426.4 245.46 439.36" stroke="#7D7D7D" stroke-linecap="round" stroke-linejoin="round"/>
<path d="M255.17 402.52C255.17 402.52 246.67 419.52 245.46 421.52" stroke="#7D7D7D" stroke-linecap="round" stroke-linejoin="round"/>
<path d="M215.09 389.57C215.09 389.57 228.09 414.26 245.46 416.69" stroke="#7D7D7D" stroke-linecap="round" stroke-linejoin="round"/>
<path d="M219.55 415.07C219.55 415.07 234.55 424.38 245.86 426" stroke="#7D7D7D" stroke-linecap="round" stroke-linejoin="round"/>
<path d="M235 446.71C238.353 447.942 241.924 448.469 245.49 448.26" stroke="#7D7D7D" stroke-linecap="round" stroke-linejoin="round"/>
<path d="M226.16 442.35C227.58 443.297 229.064 444.146 230.6 444.89" stroke="#7D7D7D" stroke-linecap="round" stroke-linejoin="round"/>
<path d="M235.74 437.33C238.248 439.898 241.509 441.6 245.05 442.19" stroke="#7D7D7D" stroke-linecap="round" stroke-linejoin="round"/>
<path d="M268.53 439C268.53 439 259.22 447.1 254.36 449.12" stroke="#7D7D7D" stroke-linecap="round" stroke-linejoin="round"/>
</g>
<path d="M245 295.85L202.87 291.74L203.63 294.02C203.63 294.02 208.63 337.87 212.78 358.84C216.93 379.81 220.03 388.58 220.03 388.58C219.85 393.082 220.363 397.584 221.55 401.93C223.46 408.03 223.84 422.93 225.36 430.53C226.88 438.13 226.13 442.35 226.13 442.35C226.13 442.35 221.93 446.92 222.31 448.06C222.555 448.929 222.683 449.827 222.69 450.73C222.69 450.73 224.98 456.83 231.08 456.83C237.18 456.83 242.52 451.88 242.52 451.88L244.04 325.42L245.04 325.35L245.99 325.42L247.52 451.88C247.52 451.88 252.86 456.83 258.96 456.83C265.06 456.83 267.34 450.73 267.34 450.73C267.347 449.826 267.479 448.928 267.73 448.06C268.11 446.92 263.91 442.35 263.91 442.35C263.91 442.35 263.15 438.15 264.68 430.53C266.21 422.91 266.58 408.03 268.49 401.93C269.674 397.584 270.183 393.081 270 388.58C270 388.58 273.05 379.81 277.25 358.84C281.45 337.87 286.4 294 286.4 294L287.16 291.72L245 295.85Z" stroke="#263238" stroke-linecap="round" stroke-linejoin="round"/>
<path d="M276.49 166.68C276.49 166.68 258.18 163.24 247.13 163.24C236.08 163.24 218.13 169.34 218.13 169.34L230 299C230 299 236.86 302 249.06 302C261.26 302 272.7 296.28 272.7 296.28L276.49 166.68Z" fill="white" stroke="#263238" stroke-linecap="round" stroke-linejoin="round"/>
<path d="M249.92 213.66C263.147 213.66 273.87 203.089 273.87 190.05C273.87 177.011 263.147 166.44 249.92 166.44C236.693 166.44 225.97 177.011 225.97 190.05C225.97 203.089 236.693 213.66 249.92 213.66Z" fill="white" stroke="#263238" stroke-linecap="round" stroke-linejoin="round"/>
<path d="M249.92 207.88C259.911 207.88 268.01 199.897 268.01 190.05C268.01 180.203 259.911 172.22 249.92 172.22C239.929 172.22 231.83 180.203 231.83 190.05C231.83 199.897 239.929 207.88 249.92 207.88Z" fill="white" stroke="#263238" stroke-linecap="round" stroke-linejoin="round"/>
<path opacity="0.3" d="M220.62 174.71C220.62 174.71 218.53 218.01 247.22 225.83C275.91 233.65 288.43 190.36 284.78 177.32C281.13 164.28 231.05 157 220.62 174.71Z" fill="black"/>
<path d="M249.92 196.82C262.214 196.82 272.18 188.837 272.18 178.99C272.18 169.143 262.214 161.16 249.92 161.16C237.626 161.16 227.66 169.143 227.66 178.99C227.66 188.837 237.626 196.82 249.92 196.82Z" fill="#263238" stroke="#263238" stroke-linecap="round" stroke-linejoin="round"/>
<path d="M312 220.62C312 220.62 391.23 247.14 401.15 231.42C406.5 222.93 384.7 208.86 370.93 204.27C357.16 199.68 318.93 181.61 318.93 181.61" fill="#1576D6"/>
<mask id="mask2_2010_3650" style="mask-type:luminance" maskUnits="userSpaceOnUse" x="312" y="181" width="90" height="56">
<path d="M312 220.62C312 220.62 391.23 247.14 401.15 231.42C406.5 222.93 384.7 208.86 370.93 204.27C357.16 199.68 318.93 181.61 318.93 181.61" fill="white"/>
</mask>
<g mask="url(#mask2_2010_3650)">
<path opacity="0.3" d="M378.56 225.58C367.39 225.58 323.96 215.43 313.38 212.92L312.02 220.62C312.02 220.62 391.25 247.14 401.17 231.42C401.47 230.941 401.693 230.418 401.83 229.87C394.354 227.201 386.497 225.753 378.56 225.58Z" fill="black"/>
<path d="M326.08 206.07L316.33 222.69L326.08 213.46" stroke="#263238" stroke-linecap="round" stroke-linejoin="round"/>
</g>
<path d="M312 220.62C312 220.62 391.23 247.14 401.15 231.42C406.5 222.93 384.7 208.86 370.93 204.27C357.16 199.68 318.93 181.61 318.93 181.61" stroke="#263238" stroke-linecap="round" stroke-linejoin="round"/>
<path d="M319.23 208.9L297.07 309.28L263.44 317.69L266.24 243.55L271.33 177.06L273.33 164.57C273.33 164.57 318.68 180.11 321.99 182.41C325.3 184.71 323.99 197.41 323.99 197.41" fill="#1576D6"/>
<mask id="mask3_2010_3650" style="mask-type:luminance" maskUnits="userSpaceOnUse" x="263" y="164" width="62" height="154">
<path d="M319.23 208.9L297.07 309.28L263.44 317.69L266.24 243.55L271.33 177.06L273.33 164.57C273.33 164.57 318.68 180.11 321.99 182.41C325.3 184.71 323.99 197.41 323.99 197.41" fill="white"/>
</mask>
<g mask="url(#mask3_2010_3650)">
<path opacity="0.3" d="M316.36 221.9L279.88 291.21C279.88 291.21 287.43 262.88 286.96 259.58C286.69 257.66 274.96 264.63 265.21 270.83L263.44 317.69L297.07 309.28L316.36 221.9Z" fill="black"/>
<path opacity="0.3" d="M280.35 168C280.35 168 292.16 176.49 290.74 195.38C289.32 214.27 285.07 211.44 285.07 211.44C285.07 211.44 287.91 215.68 285.07 216.16C282.23 216.64 277.07 207.66 276.07 210.02C275.07 212.38 269.46 215.21 269.46 215.21L271.3 177.08C271.3 177.08 272.8 167 280.35 168Z" fill="black"/>
<path d="M290.74 181.81C290.74 181.81 294.74 191.81 292.32 206.07" stroke="#263238" stroke-linecap="round" stroke-linejoin="round"/>
<path d="M295.23 197.11C295.23 197.11 297.07 201.06 290.74 216.89" stroke="#263238" stroke-linecap="round" stroke-linejoin="round"/>
<path d="M303.67 256.45C303.67 256.45 289.16 284.67 273.6 296.54" stroke="#263238" stroke-linecap="round" stroke-linejoin="round"/>
<path d="M286.26 271.22C286.26 271.22 284.41 274.39 276 281" stroke="#263238" stroke-linecap="round" stroke-linejoin="round"/>
</g>
<path d="M319.23 208.9L297.07 309.28L263.44 317.69L266.24 243.55L271.33 177.06L273.33 164.57C273.33 164.57 318.68 180.11 321.99 182.41C325.3 184.71 323.99 197.41 323.99 197.41" stroke="#263238" stroke-linecap="round" stroke-linejoin="round"/>
<path d="M277.7 163.81C279.399 167.221 280.356 170.953 280.51 174.76C280.51 180.37 280.76 194.13 282.03 200.5C283.3 206.87 287.38 214.25 286.11 214C284.84 213.75 283.31 210.43 280 206.61C276.69 202.79 275.67 196.67 273.88 197.95C272.09 199.23 268.79 210.18 268.79 210.18C268.79 210.18 269.3 187.25 270.06 178.59C270.82 169.93 272.61 158.46 277.7 163.81Z" fill="#1576D6"/>
<mask id="mask4_2010_3650" style="mask-type:luminance" maskUnits="userSpaceOnUse" x="268" y="162" width="19" height="53">
<path d="M277.7 163.81C279.399 167.221 280.356 170.953 280.51 174.76C280.51 180.37 280.76 194.13 282.03 200.5C283.3 206.87 287.38 214.25 286.11 214C284.84 213.75 283.31 210.43 280 206.61C276.69 202.79 275.67 196.67 273.88 197.95C272.09 199.23 268.79 210.18 268.79 210.18C268.79 210.18 269.3 187.25 270.06 178.59C270.82 169.93 272.61 158.46 277.7 163.81Z" fill="white"/>
</mask>
<g mask="url(#mask4_2010_3650)">
<path opacity="0.3" d="M277.7 163.81C279.399 167.221 280.356 170.953 280.51 174.76C280.51 180.37 280.76 194.13 282.03 200.5C283.3 206.87 287.38 214.25 286.11 214C284.84 213.75 283.31 210.43 280 206.61C276.69 202.79 275.67 196.67 273.88 197.95C272.09 199.23 268.79 210.18 268.79 210.18C268.79 210.18 269.3 187.25 270.06 178.59C270.82 169.93 272.61 158.46 277.7 163.81Z" fill="black"/>
</g>
<path d="M277.7 163.81C279.399 167.221 280.356 170.953 280.51 174.76C280.51 180.37 280.76 194.13 282.03 200.5C283.3 206.87 287.38 214.25 286.11 214C284.84 213.75 283.31 210.43 280 206.61C276.69 202.79 275.67 196.67 273.88 197.95C272.09 199.23 268.79 210.18 268.79 210.18C268.79 210.18 269.3 187.25 270.06 178.59C270.82 169.93 272.61 158.46 277.7 163.81Z" stroke="#263238" stroke-linecap="round" stroke-linejoin="round"/>
<path d="M175.05 186C175.05 186 143.33 238.77 138.39 249.69C133.45 260.61 126.69 270.69 128.51 275.16C130.33 279.63 135.51 282.96 145.67 282.44C155.83 281.92 188.31 225.51 188.31 225.51L175.05 186Z" fill="#1576D6"/>
<mask id="mask5_2010_3650" style="mask-type:luminance" maskUnits="userSpaceOnUse" x="128" y="186" width="61" height="97">
<path d="M175.05 186C175.05 186 143.33 238.77 138.39 249.69C133.45 260.61 126.69 270.69 128.51 275.16C130.33 279.63 135.51 282.96 145.67 282.44C155.83 281.92 188.31 225.51 188.31 225.51L175.05 186Z" fill="white"/>
</mask>
<g mask="url(#mask5_2010_3650)">
<path opacity="0.3" d="M161.82 266.63C171.21 253.96 181.45 237.08 185.95 229.49L180.72 215.66L150 272.32L161.82 266.63Z" fill="black"/>
<path d="M170.2 209.5L183.92 233.5L169.15 221.64" stroke="#263238" stroke-linecap="round" stroke-linejoin="round"/>
<path d="M145.41 253C145.41 253 155.41 258 159.65 267.51" stroke="#263238" stroke-linecap="round" stroke-linejoin="round"/>
<path d="M154.11 252.23C154.11 252.23 158.6 257.51 160.18 263.31" stroke="#263238" stroke-linecap="round" stroke-linejoin="round"/>
</g>
<path d="M175.05 186C175.05 186 143.33 238.77 138.39 249.69C133.45 260.61 126.69 270.69 128.51 275.16C130.33 279.63 135.51 282.96 145.67 282.44C155.83 281.92 188.31 225.51 188.31 225.51L175.05 186Z" stroke="#263238" stroke-linecap="round" stroke-linejoin="round"/>
<path d="M178.84 208.9L201 309.28L234.62 317.69L231.82 243.55L226.73 177.06L224.73 164.57C224.73 164.57 179.35 180.11 176 182.41C172.65 184.71 174 197.41 174 197.41" fill="#1576D6"/>
<mask id="mask6_2010_3650" style="mask-type:luminance" maskUnits="userSpaceOnUse" x="173" y="164" width="62" height="154">
<path d="M178.84 208.9L201 309.28L234.62 317.69L231.82 243.55L226.73 177.06L224.73 164.57C224.73 164.57 179.35 180.11 176 182.41C172.65 184.71 174 197.41 174 197.41" fill="white"/>
</mask>
<g mask="url(#mask6_2010_3650)">
<path opacity="0.3" d="M201 309.28L234.63 317.69L233.23 280.53L189.35 256.49L201 309.28Z" fill="black"/>
<path d="M195 258.83C195 258.83 204 270.7 214 277.55" stroke="#263238" stroke-linecap="round" stroke-linejoin="round"/>
<path opacity="0.3" d="M217.55 202C217.55 202 211.42 214.28 214.72 214.75C218.02 215.22 220.93 202.3 225.11 206.25L229.28 210.25L225.58 186.93C221.64 191.171 218.873 196.365 217.55 202Z" fill="black"/>
<path d="M215.57 169.41C215.57 169.41 208.97 188.41 210.82 204.49" stroke="#263238" stroke-linecap="round" stroke-linejoin="round"/>
<path d="M207.92 180.22C207.92 180.22 204.75 196.84 208.18 206.07" stroke="#263238" stroke-linecap="round" stroke-linejoin="round"/>
</g>
<path d="M178.84 208.9L201 309.28L234.62 317.69L231.82 243.55L226.73 177.06L224.73 164.57C224.73 164.57 179.35 180.11 176 182.41C172.65 184.71 174 197.41 174 197.41" stroke="#263238" stroke-linecap="round" stroke-linejoin="round"/>
<path d="M220.37 163.81C218.676 167.222 217.722 170.954 217.57 174.76C217.57 180.37 217.31 194.13 216.04 200.5C214.77 206.87 210.69 214.25 212 214C213.31 213.75 214.8 210.43 218.11 206.61C221.42 202.79 222.45 196.67 224.23 197.95C226.01 199.23 229.32 210.18 229.32 210.18C229.32 210.18 228.81 187.25 228.05 178.59C227.29 169.93 225.46 158.46 220.37 163.81Z" fill="#1576D6"/>
<mask id="mask7_2010_3650" style="mask-type:luminance" maskUnits="userSpaceOnUse" x="211" y="162" width="19" height="53">
<path d="M220.37 163.81C218.676 167.222 217.722 170.954 217.57 174.76C217.57 180.37 217.31 194.13 216.04 200.5C214.77 206.87 210.69 214.25 212 214C213.31 213.75 214.8 210.43 218.11 206.61C221.42 202.79 222.45 196.67 224.23 197.95C226.01 199.23 229.32 210.18 229.32 210.18C229.32 210.18 228.81 187.25 228.05 178.59C227.29 169.93 225.46 158.46 220.37 163.81Z" fill="white"/>
</mask>
<g mask="url(#mask7_2010_3650)">
<path opacity="0.3" d="M222.18 174.71C222.18 174.71 219.13 184.85 221.66 191.4C224.19 197.95 228.96 207.57 228.96 207.57L227.96 178.57" fill="black"/>
</g>
<path d="M220.37 163.81C218.676 167.222 217.722 170.954 217.57 174.76C217.57 180.37 217.31 194.13 216.04 200.5C214.77 206.87 210.69 214.25 212 214C213.31 213.75 214.8 210.43 218.11 206.61C221.42 202.79 222.45 196.67 224.23 197.95C226.01 199.23 229.32 210.18 229.32 210.18C229.32 210.18 228.81 187.25 228.05 178.59C227.29 169.93 225.46 158.46 220.37 163.81Z" stroke="#263238" stroke-linecap="round" stroke-linejoin="round"/>
<path d="M212.77 126.83C212.77 126.83 212.77 148.67 215.59 161.35C218.41 174.03 224.04 184.59 238.48 190.58C252.92 196.57 270.18 188.82 277.58 179.66C284.98 170.5 284.27 144.8 284.27 139.16C284.27 133.52 284.62 115.56 284.62 115.56C284.62 115.56 281.8 107.11 269.47 99C257.14 90.89 244.82 87 229.32 96.53C213.82 106.06 212.77 126.83 212.77 126.83Z" fill="white" stroke="#263238" stroke-linecap="round" stroke-linejoin="round"/>
<path d="M262.5 149.72L270.45 149.47" stroke="#263238" stroke-linecap="round" stroke-linejoin="round"/>
<path d="M256.54 169.73C256.54 169.73 257.71 165.55 263.89 164.55" stroke="#263238" stroke-linecap="round" stroke-linejoin="round"/>
<path d="M250.33 150.46V155.93C251.012 156.461 251.567 157.138 251.953 157.912C252.339 158.685 252.546 159.536 252.56 160.4C252.81 163.63 249.89 165.34 247.13 163.24" fill="white"/>
<path d="M250.33 150.46V155.93C251.012 156.461 251.567 157.138 251.953 157.912C252.339 158.685 252.546 159.536 252.56 160.4C252.81 163.63 249.89 165.34 247.13 163.24" stroke="#263238" stroke-linecap="round" stroke-linejoin="round"/>
<path d="M233.34 147.35H232.5C231.837 147.35 231.201 147.087 230.732 146.618C230.263 146.149 230 145.513 230 144.85H235.84C235.84 145.513 235.577 146.149 235.108 146.618C234.639 147.087 234.003 147.35 233.34 147.35Z" fill="#263238"/>
<path d="M227.49 144.68H238.51" stroke="#263238" stroke-linecap="round" stroke-linejoin="round"/>
<path d="M227.49 146.72H238.51" stroke="#263238" stroke-linecap="round" stroke-linejoin="round"/>
<path d="M267.56 144.51C267.56 146.36 266.78 147.85 265.81 147.85C264.84 147.85 264.06 146.36 264.06 144.51C264.06 142.66 264.84 141.18 265.81 141.18C266.78 141.18 267.56 142.67 267.56 144.51Z" fill="#263238"/>
<path d="M254.51 134.77C254.51 134.77 261.13 130.95 277.69 133.24" stroke="#263238" stroke-width="3" stroke-linecap="round" stroke-linejoin="round"/>
<path d="M242.28 132.73C240.221 129.416 237.378 126.66 234.001 124.705C230.625 122.75 226.819 121.656 222.92 121.52" stroke="#263238" stroke-width="3" stroke-linecap="round" stroke-linejoin="round"/>
<path d="M295.54 93C290.96 83.49 274.76 68.7 258.2 68C244.04 67.39 239.2 72.72 238.05 74.27C237.43 73.82 227.93 67.27 211.84 75.27C211.743 75.3225 211.665 75.4059 211.62 75.5071C211.576 75.6082 211.565 75.7214 211.592 75.8289C211.618 75.9364 211.679 76.0321 211.766 76.1011C211.852 76.1701 211.959 76.2084 212.07 76.21C212.146 76.2127 212.222 76.1955 212.29 76.16C224.14 70.23 232.4 72.59 235.77 74.16C233.61 73.79 229.71 73.65 224.04 75.39C214.88 78.21 205.04 87.72 202.56 104.27C200.08 120.82 207.84 134.91 210.66 137.73C213.48 140.55 213.83 146.54 213.83 146.54L213.12 128.22C213.12 128.22 212.77 126.81 217 124C220.48 121.67 235.71 106.17 240.93 100.81C241.87 105.81 244.43 115.61 250.8 122.23C250.895 122.326 251.025 122.38 251.16 122.38C251.225 122.382 251.289 122.371 251.35 122.347C251.41 122.323 251.464 122.286 251.51 122.24C251.557 122.194 251.594 122.14 251.619 122.08C251.644 122.02 251.657 121.955 251.657 121.89C251.657 121.825 251.644 121.76 251.619 121.7C251.594 121.64 251.557 121.586 251.51 121.54C245 114.76 242.58 104.54 241.78 99.93L242.7 98.99C242.7 98.99 246.92 110.61 253.97 116.6C261.02 122.59 270.17 127.52 284.61 122.94C299.05 118.36 304.33 111.67 304.33 111.67C304.33 111.67 300.12 102.53 295.54 93Z" fill="#263238"/>
<mask id="mask8_2010_3650" style="mask-type:luminance" maskUnits="userSpaceOnUse" x="202" y="67" width="103" height="80">
<path d="M295.54 93C290.96 83.49 274.76 68.7 258.2 68C244.04 67.39 239.2 72.72 238.05 74.27C237.43 73.82 227.93 67.27 211.84 75.27C211.743 75.3225 211.665 75.4059 211.62 75.5071C211.576 75.6082 211.565 75.7214 211.592 75.8289C211.618 75.9364 211.679 76.0321 211.766 76.1011C211.852 76.1701 211.959 76.2084 212.07 76.21C212.146 76.2127 212.222 76.1955 212.29 76.16C224.14 70.23 232.4 72.59 235.77 74.16C233.61 73.79 229.71 73.65 224.04 75.39C214.88 78.21 205.04 87.72 202.56 104.27C200.08 120.82 207.84 134.91 210.66 137.73C213.48 140.55 213.83 146.54 213.83 146.54L213.12 128.22C213.12 128.22 212.77 126.81 217 124C220.48 121.67 235.71 106.17 240.93 100.81C241.87 105.81 244.43 115.61 250.8 122.23C250.895 122.326 251.025 122.38 251.16 122.38C251.225 122.382 251.289 122.371 251.35 122.347C251.41 122.323 251.464 122.286 251.51 122.24C251.557 122.194 251.594 122.14 251.619 122.08C251.644 122.02 251.657 121.955 251.657 121.89C251.657 121.825 251.644 121.76 251.619 121.7C251.594 121.64 251.557 121.586 251.51 121.54C245 114.76 242.58 104.54 241.78 99.93L242.7 98.99C242.7 98.99 246.92 110.61 253.97 116.6C261.02 122.59 270.17 127.52 284.61 122.94C299.05 118.36 304.33 111.67 304.33 111.67C304.33 111.67 300.12 102.53 295.54 93Z" fill="white"/>
</mask>
<g mask="url(#mask8_2010_3650)">
<path d="M279.21 110.6C303.09 113.9 307.5 109 307.5 109" stroke="#7D7D7D" stroke-linecap="round" stroke-linejoin="round"/>
<path d="M244 84.5C244 84.5 251.56 101.5 269.62 108.25" stroke="#7D7D7D" stroke-linecap="round" stroke-linejoin="round"/>
<path d="M243.5 78.5C243.5 78.5 272.5 91.98 284 92.5C295.5 93.02 297 90.5 297 90.5" stroke="#7D7D7D" stroke-linecap="round" stroke-linejoin="round"/>
<path d="M238 85.5C238 85.5 216.5 97 210.5 110C204.5 123 207 132 207 132" stroke="#7D7D7D" stroke-linecap="round" stroke-linejoin="round"/>
<path d="M210.47 88.88C209.032 89.9656 207.693 91.1771 206.47 92.5" stroke="#7D7D7D" stroke-linecap="round" stroke-linejoin="round"/>
<path d="M236 81.5C228.43 81.1527 220.906 82.8523 214.22 86.42" stroke="#7D7D7D" stroke-linecap="round" stroke-linejoin="round"/>
</g>
<path d="M245.14 140.33C240.292 138.156 235.038 137.033 229.725 137.033C224.412 137.033 219.158 138.156 214.31 140.33C214.31 140.33 211.38 140.62 211.38 142.97C211.38 145.32 213.43 145.02 213.43 145.02C213.43 145.02 213.83 156.13 218.43 159.41C222.54 162.35 231.65 163.23 236.34 161.47C241.03 159.71 243.98 156.47 244.86 153.54C245.74 150.61 245.14 140.33 245.14 140.33Z" stroke="#263238" stroke-width="3" stroke-linecap="round" stroke-linejoin="round"/>
<path d="M252.09 140.33C256.937 138.157 262.188 137.033 267.5 137.033C272.812 137.033 278.063 138.157 282.91 140.33C282.91 140.33 285.85 140.62 285.85 142.97C285.85 145.32 283.8 145 283.8 145C283.8 145 283.4 156.11 278.8 159.39C274.69 162.33 265.59 163.21 260.89 161.45C256.19 159.69 253.26 156.45 252.38 153.52C251.5 150.59 252.09 140.33 252.09 140.33Z" stroke="#263238" stroke-width="3" stroke-linecap="round" stroke-linejoin="round"/>
<path d="M245.14 140.33C247.386 139.427 249.894 139.427 252.14 140.33" stroke="#263238" stroke-width="3" stroke-linecap="round" stroke-linejoin="round"/>
<path d="M246.02 144.73H251.01" stroke="#263238" stroke-width="3" stroke-linecap="round" stroke-linejoin="round"/>
<path d="M282 145C282 145 283.48 138.06 288.32 138.06C293.16 138.06 294.43 143.41 291.37 149.52C288.31 155.63 279.65 159.46 279.15 155.89C278.65 152.32 282 145 282 145Z" stroke="#263238" stroke-linecap="round" stroke-linejoin="round"/>
<path d="M302.66 134.51C302.66 134.51 289.41 134.77 281.51 134C273.61 133.23 279.51 140 282.91 140.33C287.01 140.826 291.142 141.01 295.27 140.88C298.314 140.765 301.349 141.286 304.18 142.41C304.18 142.41 308.52 137.57 302.66 134.51Z" fill="white" stroke="#263238" stroke-linecap="round" stroke-linejoin="round"/>
<path d="M294.5 159C291.963 155.919 289.745 152.588 287.88 149.06C285.33 143.97 284.57 141.68 289.41 142.18C294.25 142.68 296.29 147.28 297.56 151.1C298.83 154.92 301.89 154.92 301.89 154.92L306.22 142.44L314.89 150.08L307 176.8C307 176.8 296.3 171.45 294.77 169.16C293.24 166.87 294.76 161 294.5 159Z" fill="white" stroke="#263238" stroke-linecap="round" stroke-linejoin="round"/>
<path d="M318.45 142.66C318.45 142.66 317.69 138.59 314.12 137.82C310.55 137.05 304.44 132.73 302.4 133.49C300.36 134.25 296.54 146.49 296.54 148.49C296.54 150.49 298.83 152.57 299.6 152.57C300.37 152.57 307 140.88 307 140.88L318.45 142.66Z" fill="white" stroke="#263238" stroke-linecap="round" stroke-linejoin="round"/>
<path d="M318.71 145.72C318.71 145.72 319.98 142.92 318.71 141.65C317.44 140.38 309.28 137.82 306.48 137.31C303.68 136.8 303.17 137.82 301.64 141.65C300.11 145.48 296.8 150.82 298.33 152.09C299.86 153.36 301.89 154.89 301.89 154.89L307.24 143.94L318.71 145.72Z" fill="white" stroke="#263238" stroke-linecap="round" stroke-linejoin="round"/>
<path d="M306.22 158.21C306.22 158.21 301.13 156.21 300.36 154.64C299.59 153.07 304.69 140.37 305.46 140.12C306.23 139.87 309.53 140.88 310.55 141.39C311.57 141.9 319.47 143.17 319.98 146.49C320.49 149.81 315.14 168.65 315.65 170.69C316.16 172.73 320.24 175.02 320.24 175.02L314.12 185.46C314.12 185.46 304.44 177.06 300.87 175.27C297.3 173.48 302.15 167.63 303.42 164.57C304.69 161.51 306.22 158.21 306.22 158.21Z" fill="white" stroke="#263238" stroke-linecap="round" stroke-linejoin="round"/>
<path d="M306.22 158.21L309.79 151.58" stroke="#263238" stroke-linecap="round" stroke-linejoin="round"/>
<path d="M307.24 151.33L312.08 151.84" stroke="#263238" stroke-linecap="round" stroke-linejoin="round"/>
<path d="M318.71 172.73L308.52 183.17L318.2 191.83L327.62 177.82L318.71 172.73Z" fill="#1576D6" stroke="#263238" stroke-linecap="round" stroke-linejoin="round"/>
<path d="M381.17 232.57C379.17 232.06 338.07 210.94 333.23 207.88C328.39 204.82 316.92 197.95 316.92 194.38C316.92 190.81 326.86 176.29 326.86 176.29C326.86 176.29 329.41 172.47 333.48 174.76C337.55 177.05 375.57 201.23 385.25 206.33C394.93 211.43 402.32 215.25 402.83 225.18C403.34 235.11 394.93 236.9 389.33 236.18" fill="#1576D6"/>
<mask id="mask9_2010_3650" style="mask-type:luminance" maskUnits="userSpaceOnUse" x="316" y="174" width="87" height="63">
<path d="M381.17 232.57C379.17 232.06 338.07 210.94 333.23 207.88C328.39 204.82 316.92 197.95 316.92 194.38C316.92 190.81 326.86 176.29 326.86 176.29C326.86 176.29 329.41 172.47 333.48 174.76C337.55 177.05 375.57 201.23 385.25 206.33C394.93 211.43 402.32 215.25 402.83 225.18C403.34 235.11 394.93 236.9 389.33 236.18" fill="white"/>
</mask>
<g mask="url(#mask9_2010_3650)">
<path opacity="0.3" d="M372.69 217.58C359 214.92 335 207.27 329.32 205.42C330.81 206.42 332.18 207.22 333.23 207.88C338.07 210.94 379.13 232.06 381.17 232.57L389.33 236.14C394.93 236.9 403.33 235.14 402.83 225.14C402.33 215.14 394.93 211.38 385.25 206.29C379.51 203.29 363.79 193.53 351.11 185.63C366.17 196.35 387.73 212.13 388.29 214.94C389.16 219.31 388.29 220.61 372.69 217.58Z" fill="black"/>
</g>
<path d="M381.17 232.57C379.17 232.06 338.07 210.94 333.23 207.88C328.39 204.82 316.92 197.95 316.92 194.38C316.92 190.81 326.86 176.29 326.86 176.29C326.86 176.29 329.41 172.47 333.48 174.76C337.55 177.05 375.57 201.23 385.25 206.33C394.93 211.43 402.32 215.25 402.83 225.18C403.34 235.11 394.93 236.9 389.33 236.18" stroke="#263238" stroke-linecap="round" stroke-linejoin="round"/>
<path d="M303.42 225.21L276.42 230.56L277.44 237.69L292.47 240.49L302.4 231.58L303.42 225.21Z" stroke="#263238" stroke-linecap="round" stroke-linejoin="round"/>
<path d="M147 263.69C148.876 263.291 150.814 263.291 152.69 263.689C154.566 264.087 156.338 264.874 157.89 266C163.61 269.9 177.65 278 189.35 282.12C201.05 286.24 202.86 286.54 201.35 293.82C199.84 301.1 194.59 311.5 189.66 312.82C184.73 314.14 174.58 306.58 158.98 298.26C143.38 289.94 129.34 285 127.78 278.76C126.22 272.52 132.98 261.87 132.98 261.87" fill="#1576D6"/>
<mask id="mask10_2010_3650" style="mask-type:luminance" maskUnits="userSpaceOnUse" x="127" y="261" width="75" height="52">
<path d="M147 263.69C148.876 263.291 150.814 263.291 152.69 263.689C154.566 264.087 156.338 264.874 157.89 266C163.61 269.9 177.65 278 189.35 282.12C201.05 286.24 202.86 286.54 201.35 293.82C199.84 301.1 194.59 311.5 189.66 312.82C184.73 314.14 174.58 306.58 158.98 298.26C143.38 289.94 129.34 285 127.78 278.76C126.22 272.52 132.98 261.87 132.98 261.87" fill="white"/>
</mask>
<g mask="url(#mask10_2010_3650)">
<path opacity="0.3" d="M189.35 282.15L187.99 281.65L196.78 286.96C196.78 286.96 186.86 286.96 185.45 294.52C184.04 302.08 188.75 306.32 185.92 307.26C183.09 308.2 145.31 290.26 145.31 290.26L146.54 292.02C150.4 293.91 154.6 295.95 158.93 298.26C174.53 306.58 184.67 314.12 189.61 312.82C194.55 311.52 199.74 301.12 201.3 293.82C202.86 286.52 201 286.31 189.35 282.15Z" fill="black"/>
</g>
<path d="M147 263.69C148.876 263.291 150.814 263.291 152.69 263.689C154.566 264.087 156.338 264.874 157.89 266C163.61 269.9 177.65 278 189.35 282.12C201.05 286.24 202.86 286.54 201.35 293.82C199.84 301.1 194.59 311.5 189.66 312.82C184.73 314.14 174.58 306.58 158.98 298.26C143.38 289.94 129.34 285 127.78 278.76C126.22 272.52 132.98 261.87 132.98 261.87" stroke="#263238" stroke-linecap="round" stroke-linejoin="round"/>
<path d="M258.5 289.43C258.5 289.43 263.95 290.43 267.85 289.43C271.75 288.43 272.01 290.43 270.19 293.85C268.37 297.27 263.95 298.79 261.1 298.53C258.25 298.27 253.82 292.29 258.5 289.43Z" fill="white" stroke="#263238" stroke-linecap="round" stroke-linejoin="round"/>
<path d="M210.14 299.05C210.14 299.05 216.9 297.49 219.5 295.67C222.1 293.85 242.64 280.07 245.24 280.07C247.84 280.07 265.24 293.59 265.51 294.63C265.78 295.67 260.58 302.17 259.02 303.47C257.46 304.77 251.22 312.57 249.66 314.13C248.1 315.69 242.12 318.55 240.3 319.07C238.48 319.59 235.88 318.07 236.4 316.21C236.92 314.35 237.4 312.83 237.4 312.83C237.4 312.83 227.52 317.77 222.32 316.47C217.12 315.17 204.9 308.93 204.9 308.93L210.14 299.05Z" fill="white" stroke="#263238" stroke-linecap="round" stroke-linejoin="round"/>
<path d="M237.44 300.09C237.44 300.09 249.92 311.01 249.66 314.09L237.44 300.09Z" fill="white"/>
<path d="M237.44 300.09C237.44 300.09 249.92 311.01 249.66 314.09" stroke="#263238" stroke-linecap="round" stroke-linejoin="round"/>
<path d="M240.82 291.51L255.38 306.85" stroke="#263238" stroke-linecap="round" stroke-linejoin="round"/>
<path d="M245.76 284.23L260.84 300.87" stroke="#263238" stroke-linecap="round" stroke-linejoin="round"/>
<path d="M237.44 312.83C237.44 312.83 241.86 311.27 241.34 313.83L237.44 312.83Z" fill="white"/>
<path d="M237.44 312.83C237.44 312.83 241.86 311.27 241.34 313.83" stroke="#263238" stroke-linecap="round" stroke-linejoin="round"/>
<path d="M197.92 291.77L211.92 297.49L204.64 313.87L190.64 307.11C190.64 307.11 190.13 297.23 197.92 291.77Z" fill="#1576D6" stroke="#263238" stroke-linecap="round" stroke-linejoin="round"/>
</svg>
